<?xml version="1.0" encoding="UTF-8" standalone="no"?>
<!-- Created with Inkscape (http://www.inkscape.org/) -->

<svg
   width="297mm"
   height="210mm"
   viewBox="0 0 297 210"
   version="1.1"
   id="svg5"
   inkscape:version="1.2.2 (1:1.2.2+202305151915+b0a8486541)"
   sodipodi:docname="popularnosc.svg"
   xmlns:inkscape="http://www.inkscape.org/namespaces/inkscape"
   xmlns:sodipodi="http://sodipodi.sourceforge.net/DTD/sodipodi-0.dtd"
   xmlns="http://www.w3.org/2000/svg"
   xmlns:svg="http://www.w3.org/2000/svg">
  <sodipodi:namedview
     id="namedview7"
     pagecolor="#ffffff"
     bordercolor="#666666"
     borderopacity="1.0"
     inkscape:showpageshadow="2"
     inkscape:pageopacity="0.0"
     inkscape:pagecheckerboard="0"
     inkscape:deskcolor="#d1d1d1"
     inkscape:document-units="mm"
     showgrid="false"
     inkscape:zoom="0.75187991"
     inkscape:cx="412.96488"
     inkscape:cy="299.91492"
     inkscape:window-width="1920"
     inkscape:window-height="1016"
     inkscape:window-x="0"
     inkscape:window-y="27"
     inkscape:window-maximized="1"
     inkscape:current-layer="layer1" />
  <defs
     id="defs2" />
  <g
     inkscape:label="Layer 1"
     inkscape:groupmode="layer"
     id="layer1">
    <g
       id="g349"
       transform="rotate(-4.2776024,147.02074,179.63253)">
      <path
         style="fill:#000080;stroke-width:0.0999995;stroke-linejoin:round"
         id="path339"
         d="m 39.877605,169.94347 c 0.37202,0.25497 0.885045,0.62625 1.28346,0.79253 0.983292,0.41039 2.326544,0.70224 3.336808,0.88676 2.089518,0.38166 3.65647,0.51444 5.818804,0.75912 10.500349,0.90904 21.003829,1.7707 31.497555,2.75673 19.448898,1.81999 38.907298,3.52471 58.377168,5.10392 18.90567,1.48989 37.81582,2.94317 56.7499,4.02746 8.55057,0.48966 11.57515,0.60427 19.86733,0.98069 10.04851,0.35052 20.08836,0.89518 30.13127,1.36177 0.77328,0.0405 1.54778,0.0575 2.3211,0.098 0.12155,0.006 0.25217,0.0739 0.36419,0.0264 0.052,-0.0221 -0.0346,-0.10914 -0.0363,-0.16564 -0.003,-0.11105 0.014,-0.22178 0.0209,-0.33267 -0.0272,0.008 -0.0164,0.0462 0.0108,0.0385 v 0 c 0.10033,-0.13711 0.26951,-0.24438 0.30099,-0.41133 0.0562,-0.29797 -0.53464,-0.28349 -0.5914,-0.28897 -0.61364,-0.0592 -1.83198,-0.128 -2.33372,-0.1594 -10.04254,-0.48425 -20.0961,-0.75582 -30.13843,-1.25249 -25.55745,-1.16553 -51.08176,-2.90264 -76.58011,-4.99407 -19.46638,-1.5643 -38.9225,-3.24797 -58.371492,-5.01511 -10.488562,-0.98222 -20.985382,-1.85454 -31.483704,-2.7219 -2.28041,-0.25211 -3.559061,-0.34997 -5.727877,-0.7305 -1.502778,-0.26366 -3.050437,-0.58477 -4.381342,-1.36616 -0.428767,-0.30823 -0.864679,0.29814 -0.435911,0.60637 z" />
      <path
         style="fill:#000080;stroke-width:0.0999995;stroke-linejoin:round"
         id="path345"
         d="m 244.91126,184.13795 c 1.99159,0.80481 4.12145,1.14837 6.19858,1.65722 0.73287,0.25447 1.57772,0.30782 2.24384,0.74354 0.0664,0.0434 0.20562,0.11929 0.15517,0.18054 -0.05,0.0608 -0.12606,-0.0972 -0.19862,-0.12778 -0.0557,-0.0235 -0.11918,-0.0207 -0.17877,-0.031 -1.7103,0.94965 -3.56168,1.60185 -5.30264,2.48729 -0.69816,0.79633 -0.31621,0.51386 -1.08326,0.92608 -0.0265,0.01 -0.0124,0.0474 0.0141,0.0374 v 0 c 0.85541,-0.19747 0.37763,-0.14602 1.43984,-0.0717 1.97155,-0.6486 3.92296,-1.48375 5.66634,-2.61523 0.15089,-0.21269 0.39346,-0.38411 0.45267,-0.63808 0.28138,-1.20692 -2.27916,-1.65604 -2.96813,-1.87678 -2.05508,-0.4994 -4.13704,-0.89027 -6.17172,-1.47053 -0.56501,-0.18906 -0.83238,0.60999 -0.26737,0.79905 z" />
    </g>
    <path
       style="fill:#000080;stroke-width:0.0999995;stroke-linejoin:round"
       id="path459"
       d="m 40.831793,176.57933 c -0.107926,-3.78828 -0.736081,-7.5319 -1.362723,-11.26101 -1.639509,-9.18179 -3.223511,-18.37201 -4.976691,-27.53304 -1.460306,-7.37075 -2.790486,-14.76883 -3.678589,-22.23289 -0.606795,-5.09984 -0.669483,-6.4921 -1.080344,-11.60639 -0.715327,-10.638953 -0.897811,-21.304722 -1.089798,-31.963248 -0.122144,-5.667615 -0.06547,-11.341719 -0.386503,-17.00336 -0.14795,-0.08572 0.01283,-1.360961 -0.130924,-1.583113 -0.04067,-0.06285 -0.136713,-0.06108 -0.205068,-0.09162 -0.113622,-0.873221 -1.348544,-0.712534 -1.234919,0.160686 v 0 c -0.05921,0.03974 -0.148756,0.05401 -0.177633,0.119216 -0.08907,0.201131 0.224777,1.292519 0.10822,1.473589 0.221644,5.649005 0.380667,11.299918 0.425921,16.953442 0.192627,10.691092 0.528029,21.382114 1.203891,32.054658 0.413528,5.07861 0.490591,6.61677 1.096195,11.68132 0.895866,7.49197 2.22422,14.91919 3.694266,22.31732 1.764443,9.14694 3.378788,18.32037 5.034053,27.48752 0.615936,3.69122 1.111615,7.39354 1.539658,11.11054 0.05913,0.86337 1.280112,0.77975 1.220988,-0.0836 z" />
    <path
       style="fill:#000080;stroke-width:0.0999995;stroke-linejoin:round"
       id="path461"
       d="m 24.26731,60.210334 c 0.370964,-2.780691 0.658403,-5.572371 0.981295,-8.359127 0.218928,-0.812403 -0.01323,-1.863931 0.423122,-2.635578 0.01801,-0.03184 0.04477,0.07485 0.02646,0.106516 -0.04901,0.08475 -0.214211,0.109681 -0.207974,0.207383 0.0063,0.09825 0.15521,0.12115 0.232815,0.181724 2.551743,2.040951 4.400628,4.783492 6.276058,7.42015 1.556292,1.971347 0.6849,1.184603 2.529882,2.450367 0.01603,0.02331 0.04898,5.29e-4 0.03296,-0.02265 v 0 c -0.526224,-2.185524 -0.09649,-1.086035 -1.40985,-3.248728 -1.986079,-2.786097 -3.946366,-5.72615 -6.754812,-7.758449 -0.224212,-0.114956 -0.424044,-0.303778 -0.672634,-0.344866 -1.890526,-0.312486 -1.635823,2.380216 -1.821087,3.498999 -0.277795,2.77899 -0.570536,5.556191 -0.894995,8.330149 -0.123122,0.890082 1.135644,1.064202 1.258766,0.17412 z" />
    <g
       id="g714"
       transform="matrix(0.02182009,-0.60362228,0.60362228,0.02182009,-18.54523,184.6176)"
       style="stroke-width:1.65558">
      <path
         style="fill:#000080;stroke-width:0.165558;stroke-linejoin:round"
         id="path653"
         d="m 111.98301,37.29624 c -0.0175,0.391446 -0.047,0.782537 -0.0526,1.174338 -0.0147,1.028946 0.0379,3.265757 0.0555,4.17608 0.0528,2.727126 0.0982,5.454327 0.14671,8.181533 0.0421,1.242467 0.0121,2.49198 0.27375,3.711749 0.32549,1.376246 2.2718,0.915935 1.94631,-0.460314 v 0 c -0.30039,-1.053346 -0.0667,-2.224201 -0.22037,-3.286979 -0.078,-4.385387 -0.20857,-8.77306 -0.17806,-13.158589 0.23887,-1.393894 -1.7324,-1.731711 -1.97127,-0.337818 z" />
      <path
         style="fill:#000080;stroke-width:0.165558;stroke-linejoin:round"
         id="path655"
         d="m 111.02184,39.076849 c 0.0931,-0.125439 0.15709,-0.278902 0.27918,-0.376311 1.09699,-0.875247 3.36013,-0.86301 4.60993,-0.47343 0.45778,0.142695 0.86347,0.417253 1.29521,0.62588 0.72118,0.588182 1.84655,1.415894 1.61586,2.536841 -0.15662,0.760986 -1.6031,1.431914 -2.1354,1.737524 -1.29377,0.615659 -2.67091,1.005647 -4.04376,1.395015 -0.32049,0.0909 -0.64787,0.160139 -0.9617,0.271878 -0.22076,0.0786 -0.42468,0.198231 -0.63702,0.297347 -1.26648,0.629309 -0.3765,2.420382 0.88998,1.791073 v 0 c 0.58515,-0.329324 0.17679,-0.129514 1.25719,-0.436967 1.54359,-0.439264 3.08979,-0.884632 4.53159,-1.607754 1.06062,-0.667443 2.00915,-1.070745 2.64486,-2.237767 0.85399,-1.567711 0.24912,-3.247437 -0.90717,-4.444058 -0.42205,-0.436777 -0.95487,-0.750898 -1.43231,-1.126347 -0.60844,-0.260411 -1.18744,-0.604827 -1.82532,-0.781232 -2.17174,-0.600597 -4.89345,-0.310968 -6.55511,1.326372 -0.20328,0.200305 -0.3107,0.4788 -0.46606,0.718203 -0.55418,1.301107 1.28586,2.08484 1.84005,0.783733 z" />
      <path
         style="fill:#000080;stroke-width:0.165558;stroke-linejoin:round"
         id="path657"
         d="m 123.64795,48.569583 c -0.22828,-0.16583 -0.43739,-0.361916 -0.68484,-0.497485 -1.44082,-0.789377 -3.36322,-0.89476 -4.85615,-0.194763 -0.47724,0.223766 -0.87444,0.58878 -1.31167,0.883169 -0.74498,1.0326 -1.31564,1.451387 -1.24181,2.843241 0.0963,1.816082 1.63343,3.164729 3.33301,3.509238 0.60055,0.121735 1.22546,0.01252 1.83819,0.01876 0.55721,-0.200509 1.1537,-0.314418 1.67163,-0.601528 1.64088,-0.909606 3.2852,-3.264683 1.6855,-5.007337 -0.32108,-0.349774 -0.81683,-0.484286 -1.22524,-0.726427 -0.41304,-0.06191 -0.82607,-0.123822 -1.2391,-0.185735 -1.40599,-0.15231 -1.62139,1.836055 -0.2154,1.988368 v 0 c 0.20734,0.0053 0.41469,0.01058 0.62204,0.01588 0.0786,0.0027 0.59566,-0.01588 0.68503,0.109881 0.47543,0.669039 -0.62046,1.655937 -1.0534,1.947532 -0.30238,0.203652 -0.66141,0.306861 -0.99211,0.460293 -0.35825,0.0359 -0.71627,0.141309 -1.07474,0.107712 -0.73668,-0.06904 -1.83364,-0.554816 -2.05451,-1.360898 -0.18642,-0.680323 0.11243,-0.928309 0.42825,-1.494996 0.25191,-0.200964 0.47576,-0.443304 0.75572,-0.602893 1.07353,-0.61196 2.29806,-0.380622 3.3798,0.05215 0.89389,1.095878 2.4437,-0.168288 1.5498,-1.264163 z" />
      <path
         style="fill:#000080;stroke-width:0.165558;stroke-linejoin:round"
         id="path659"
         d="m 127.63084,49.449939 c -0.27202,4.009533 -0.29917,8.031644 -0.24308,12.048485 0.0157,0.550891 0.0313,1.101783 0.047,1.652674 0.0403,1.41364 2.03949,1.356649 1.99919,-0.05699 v 0 c -0.0155,-0.541245 -0.0309,-1.08249 -0.0464,-1.623734 -0.0555,-3.938014 -0.0282,-7.880803 0.23238,-11.812 0.14738,-1.406512 -1.84173,-1.614948 -1.98911,-0.208434 z" />
      <path
         style="fill:#000080;stroke-width:0.165558;stroke-linejoin:round"
         id="path661"
         d="m 127.41012,48.801453 c 0.76571,-0.873156 2.44722,-2.773301 3.70723,-2.687219 0.1872,0.01278 0.32852,0.181417 0.49279,0.272124 0.12518,0.180464 0.27947,0.343887 0.37554,0.541393 0.44199,0.908693 0.60577,2.005139 0.28172,2.978483 -0.23417,0.703382 -0.48109,0.836525 -0.97587,1.318226 -0.55278,0.406424 -1.19752,0.633156 -1.82722,0.885782 -1.31151,0.52908 -0.56328,2.383843 0.74824,1.854764 v 0 c 0.90829,-0.368162 1.80928,-0.723455 2.5543,-1.390208 0.79937,-0.932802 1.16032,-1.148154 1.48382,-2.410415 0.38019,-1.483416 0.0962,-3.44923 -0.87383,-4.673537 -0.33732,-0.425735 -0.83732,-0.69212 -1.25598,-1.03818 -0.51356,-0.08832 -1.02021,-0.290367 -1.54068,-0.264945 -1.73679,0.08483 -3.66598,2.123524 -4.73687,3.370715 -0.87895,1.107903 0.68787,2.350923 1.56681,1.243017 z" />
      <path
         style="fill:#000080;stroke-width:0.165558;stroke-linejoin:round"
         id="path663"
         d="m 137.66412,45.574566 c -0.24895,0.654561 -0.44602,1.065231 -0.51701,1.801683 -0.13652,1.416412 0.12412,2.99675 1.05772,4.128711 0.30872,0.374317 0.74265,0.624631 1.11397,0.936946 0.47961,0.119451 0.94458,0.3582 1.43884,0.358354 2.48459,7.94e-4 3.76171,-2.541008 4.62737,-4.463643 0.40124,-1.103884 0.80305,-1.401767 -1.66998,-1.088683 -0.17608,0.02228 -0.0365,0.353517 -0.0397,0.530974 -0.0158,0.889928 0.0285,0.918408 0.15604,1.872834 0.14993,1.03619 0.5904,1.94147 1.09439,2.839821 0.70447,1.226267 2.43867,0.230002 1.73421,-0.996265 v 0 c -0.39607,-0.666784 -0.72899,-1.340586 -0.8479,-2.120723 -0.10834,-0.732139 -0.14649,-0.772411 -0.14179,-1.453705 0.001,-0.136639 0.1474,-0.344004 0.0272,-0.409022 -2.00058,-1.082323 -1.74453,-1.071042 -2.13914,0.01021 -0.44375,1.006752 -1.29505,2.972911 -2.46795,3.306077 -0.18051,0.05128 -0.37506,0.01373 -0.56259,0.02058 -0.20163,-0.122502 -0.43974,-0.199024 -0.6049,-0.367506 -1.01054,-1.030899 -0.96771,-2.677038 -0.51166,-3.933335 0.68825,-1.23544 -1.05892,-2.208774 -1.74718,-0.973334 z" />
      <path
         style="fill:#000080;stroke-width:0.165558;stroke-linejoin:round"
         id="path665"
         d="m 149.57238,37.385892 c 0.13423,4.44223 0.0571,8.8871 0.0948,13.330597 0.10027,2.575711 0.007,1.40357 0.23514,3.51981 0.15433,1.405768 2.14239,1.187511 1.98806,-0.218255 v 0 c -0.21849,-1.955667 -0.12609,-0.850833 -0.22327,-3.31857 -0.0379,-4.448239 0.0396,-8.897861 -0.095,-13.34483 -0.0221,-1.414039 -2.02185,-1.382791 -1.99975,0.03125 z" />
      <path
         style="fill:#000080;stroke-width:0.165558;stroke-linejoin:round"
         id="path667"
         d="m 161.74407,48.971292 c -1.31289,-1.400537 -3.24761,-2.267876 -5.1453,-1.461164 -0.47421,0.201586 -0.86751,0.556297 -1.30126,0.834445 -0.33058,0.409472 -0.72267,0.776137 -0.99173,1.228413 -0.6843,1.150263 -1.06656,2.995626 0.41577,3.810225 1.11711,0.613894 1.89081,0.03153 2.8646,-0.374499 1.00832,-0.626002 1.72254,-1.529448 2.44549,-2.441419 0.0731,-0.09225 0.34231,-0.25191 0.22618,-0.271238 -1.5414,-0.256574 -1.45305,-0.402711 -1.54653,0.258498 0.30207,1.156706 0.10396,0.562457 0.61962,1.774116 0.56884,1.294765 2.39992,0.490302 1.83107,-0.804465 v 0 c -0.39902,-0.868937 -0.23947,-0.42526 -0.4833,-1.329352 -0.32174,-1.247798 -0.0268,-1.201893 -1.95934,-1.176718 -0.14218,0.0019 -0.18414,0.216813 -0.27205,0.328578 -0.52722,0.670279 -1.03666,1.357879 -1.73778,1.864363 -0.60844,0.403346 -0.41875,0.1964 -0.73954,0.609621 -0.0662,0.08528 -0.10962,0.321249 -0.19665,0.257357 -0.51802,-0.38032 0.43329,-1.835827 0.66517,-2.090875 0.49001,-0.389715 0.73553,-0.700275 1.36972,-0.804029 0.90801,-0.14855 1.73568,0.418833 2.35177,1.009063 0.86332,1.120124 2.44741,-0.100796 1.58409,-1.22092 z" />
      <path
         style="fill:#000080;stroke-width:0.165558;stroke-linejoin:round"
         id="path669"
         d="m 165.23248,48.708069 c 0.29655,1.726856 0.53664,3.473611 1.02875,5.159001 0.55463,-0.378147 1.29903,-0.570984 1.66389,-1.134443 0.17007,-0.262649 -0.25314,-0.572429 -0.37093,-0.862317 -0.50503,-1.242954 -1.00839,-2.524215 -1.29146,-3.839834 -0.0758,-0.352197 -0.10262,-0.713171 -0.15393,-1.069755 0.0241,-0.371475 -0.0982,-0.875954 0.30893,-1.111465 0.0939,-0.05433 0.21646,-0.01585 0.32481,-0.02172 0.22123,-0.01199 0.44235,-0.03012 0.66389,-0.03185 1.04457,-0.0081 1.32299,0.03194 2.4036,0.103619 1.41124,0.09159 1.54076,-1.904217 0.12952,-1.995803 v 0 c -1.27004,-0.08076 -3.0403,-0.334258 -4.2401,0.217594 -1.45438,0.668943 -1.58913,1.726483 -1.56832,3.137667 0.068,0.434893 0.1096,0.874728 0.20392,1.304679 0.30785,1.403363 0.84154,2.771407 1.38235,4.098171 0.12624,0.309731 0.0738,0.837099 0.39748,0.921326 0.67226,0.174935 1.37665,-0.187039 2.06498,-0.280558 -0.47491,-1.597171 -0.6796,-3.261747 -0.97059,-4.898099 -0.2148,-1.397805 -2.19159,-1.094023 -1.97679,0.303781 z" />
      <path
         style="fill:#000080;stroke-width:0.165558;stroke-linejoin:round"
         id="path671"
         d="m 172.90621,46.295614 c 0.42444,1.828358 0.40929,3.72092 0.68495,5.570606 0.0533,0.358031 0.14138,0.710033 0.21208,1.065051 0.21983,0.283154 0.30964,0.771342 0.65949,0.849466 1.54181,0.344289 1.88597,-0.415015 2.52177,-1.431277 0.24515,-0.391848 0.43961,-0.813273 0.66674,-1.215832 0.76476,-1.355423 0.45463,-0.885692 1.33224,-1.973992 0.18048,-0.09307 0.3403,-0.251389 0.54144,-0.279215 0.22959,-0.03176 0.22771,0.399637 0.24886,0.470281 0.056,0.187232 0.14892,0.362447 0.20071,0.550902 0.19541,0.711028 0.21102,1.06308 0.30419,1.805022 0.14228,1.176187 0.0205,0.607676 0.3563,1.707438 0.44434,1.342594 2.34306,0.714203 1.89872,-0.628393 v 0 c -0.27071,-0.712314 -0.14304,-0.274061 -0.27239,-1.342049 -0.11441,-0.826897 -0.18347,-1.708531 -0.52405,-2.486813 -0.38847,-0.887746 -0.93513,-1.663766 -1.96076,-1.89856 -1.1239,-0.257289 -1.55198,0.293581 -2.36192,0.861009 -0.27468,0.352918 -0.57431,0.687769 -0.82405,1.058754 -0.30026,0.44603 -1.01039,1.778596 -1.28331,2.282077 -0.11223,0.207044 -0.43568,0.407865 -0.33627,0.621363 0.80102,1.720345 0.85364,-0.273465 0.79225,0.651653 -0.0613,-0.294648 -0.1395,-0.586274 -0.18386,-0.883941 -0.29019,-1.947392 -0.27091,-3.941797 -0.73917,-5.863228 -0.36039,-1.367523 -2.29436,-0.857842 -1.93396,0.509678 z" />
      <path
         style="fill:#000080;stroke-width:0.165558;stroke-linejoin:round"
         id="path673"
         d="m 191.47121,47.594006 c -1.42857,-1.134126 -3.50103,-0.849823 -4.85838,0.298701 -0.3813,0.322644 -0.65269,0.756272 -0.97904,1.134409 -0.17531,0.451403 -0.44065,0.877528 -0.52592,1.354209 -0.27862,1.557454 0.49133,2.977973 2.08644,3.361852 1.2606,0.303374 1.6778,-0.131051 2.7433,-0.652077 0.31485,-0.345707 0.69889,-0.639265 0.94457,-1.037121 0.47255,-0.765257 0.62623,-1.64021 0.48864,-2.520027 -0.14062,-0.899268 -0.42721,-1.147688 -0.91713,-1.836899 -0.86473,-1.119036 -2.44729,0.103878 -1.58256,1.222912 v 0 c 0.49105,0.525622 0.79109,1.120032 0.47222,1.856516 -0.0925,0.213714 -0.26327,0.384233 -0.3949,0.576349 -0.16273,0.127294 -0.30648,0.283583 -0.4882,0.381879 -0.30941,0.167359 -1.08467,0.310147 -1.32867,-0.09432 -0.28705,-0.475839 -0.0584,-0.893011 0.0639,-1.363831 0.16013,-0.229915 0.28216,-0.491726 0.48037,-0.689743 0.48187,-0.481388 1.49078,-0.976619 2.19534,-0.686514 0.10577,0.04355 0.1873,0.131371 0.28095,0.197056 1.06303,0.932723 2.3821,-0.570627 1.31907,-1.503349 z" />
      <path
         style="fill:#000080;stroke-width:0.165558;stroke-linejoin:round"
         id="path675"
         d="m 200.05106,43.934599 c -0.34313,0.03707 -0.69031,0.04686 -1.02938,0.111215 -1.5911,0.301985 -3.61113,1.099196 -4.0684,2.861617 -0.11793,0.454543 -0.0108,0.939128 -0.0162,1.408689 0.19684,0.429953 0.33538,0.891725 0.59053,1.289857 0.4537,0.707964 1.12953,1.210958 1.72388,1.782233 0.19662,0.188984 0.40622,0.368716 0.57058,0.586338 0.36928,0.488977 0.17142,0.373843 -0.0629,0.309179 -0.51006,0.08361 -0.79663,0.472834 -1.33713,0.281459 -1.41186,-0.08154 -1.52718,1.91513 -0.11532,1.996672 v 0 c 0.29666,-0.0029 0.59766,0.04204 0.88998,-0.0086 0.58161,-0.100732 1.42001,-0.484483 1.83671,-0.898191 0.28716,-0.285102 0.46045,-0.66556 0.69067,-0.998339 0.005,-0.417902 0.10618,-0.846122 0.0138,-1.253702 -0.26099,-1.151109 -2.2333,-2.147287 -2.80659,-3.239812 -0.0523,-0.142894 -0.14842,-0.276744 -0.15703,-0.428681 -0.068,-1.201494 2.38731,-1.730809 3.26859,-1.799955 1.41421,0.0058 1.42244,-1.994164 0.008,-1.999985 z" />
      <path
         style="fill:#000080;stroke-width:0.165558;stroke-linejoin:round"
         id="path677"
         d="m 196.47644,33.874127 c 0.38928,1.613676 0.83433,3.213616 1.2429,4.82281 0.34807,1.370708 2.28655,0.878451 1.93847,-0.492258 v 0 c -0.39567,-1.557853 -0.81963,-3.108298 -1.20991,-4.667226 -0.23807,-1.394031 -2.20952,-1.057357 -1.97146,0.336674 z" />
      <path
         style="fill:#000080;stroke-width:0.165558;stroke-linejoin:round"
         id="path679"
         d="m 209.29939,45.324966 c -0.33161,0.01283 -0.66799,-0.01905 -0.99483,0.0385 -1.80958,0.318595 -3.89457,1.67636 -4.37008,3.554047 -0.13655,0.539184 -0.0289,1.112036 -0.0434,1.668053 0.62141,1.439333 0.52104,1.668166 1.72661,2.695958 0.35908,0.306123 0.795,0.508498 1.19249,0.762747 1.20799,0.735361 2.24795,-0.972998 1.03996,-1.708359 v 0 c -0.92292,-0.519348 -1.46045,-0.837534 -1.96042,-1.824064 -0.0444,-0.256443 -0.15842,-0.510276 -0.13332,-0.769324 0.13406,-1.383467 1.91411,-2.26083 3.12689,-2.461326 1.38327,0.294232 1.79938,-1.662004 0.41611,-1.956234 z" />
      <path
         style="fill:#000080;stroke-width:0.165558;stroke-linejoin:round"
         id="path681"
         d="m 208.06834,35.836677 c 0.25692,0.904203 0.29591,1.8405 0.36396,2.771352 0.10768,1.410107 2.10187,1.257826 1.99419,-0.152281 v 0 c -0.0971,-1.225392 -0.14284,-2.466483 -0.62555,-3.618124 -0.70644,-1.22513 -2.43904,-0.226076 -1.7326,0.999053 z" />
    </g>
    <g
       id="g720"
       transform="matrix(0.60401653,0,0,0.60401653,131.54449,133.53029)"
       style="stroke-width:1.65558">
      <path
         style="fill:#000080;stroke-width:0.165558;stroke-linejoin:round"
         id="path691"
         d="m 156.84409,82.178918 c -0.21145,-0.104169 -0.41285,-0.231867 -0.63434,-0.312502 -2.10771,-0.767331 -4.53768,-0.861846 -6.74134,-0.554402 -0.7166,0.09998 -1.41666,0.295238 -2.12499,0.442856 -0.6939,0.284756 -1.44332,0.460489 -2.0817,0.854269 -2.27328,1.40227 -3.81166,3.823483 -4.21286,6.456301 -0.13562,0.889982 -0.19941,1.820437 -0.0109,2.700742 0.19989,0.933744 0.76717,1.748939 1.15076,2.623408 0.69033,0.684437 1.29495,1.467855 2.071,2.053314 1.47892,1.115714 3.16471,1.714522 4.9351,2.15119 0.69189,0.170654 1.40551,0.236336 2.10827,0.354505 1.39561,0.228634 1.71895,-1.745054 0.32334,-1.973689 v 0 c -0.61566,-0.09782 -1.23967,-0.152858 -1.847,-0.293465 -1.51408,-0.350541 -2.84567,-0.799793 -4.14434,-1.690555 -0.60457,-0.414676 -1.09451,-0.975659 -1.64176,-1.463487 -0.3185,-0.595059 -0.7842,-1.132343 -0.95552,-1.785173 -0.17926,-0.68312 -0.1516,-1.41627 -0.0687,-2.117633 0.23697,-2.003983 1.34988,-4.054842 3.06627,-5.171156 0.52469,-0.341247 1.14978,-0.494964 1.72468,-0.742448 0.61721,-0.134704 1.22661,-0.312197 1.85163,-0.404116 1.80908,-0.266057 3.97315,-0.228077 5.72767,0.360209 0.15854,0.05316 0.30262,0.142361 0.45394,0.213542 1.20329,0.743027 2.25409,-0.958686 1.0508,-1.70171 z" />
      <path
         style="fill:#000080;stroke-width:0.165558;stroke-linejoin:round"
         id="path693"
         d="m 153.84752,90.416728 c 1.47129,-0.320961 3.11421,-0.353015 4.5737,0.07138 0.22489,0.0654 0.42763,0.191154 0.64145,0.286732 -0.3385,0.854289 0.27193,-0.599861 -0.28409,0.378063 -0.12276,0.215897 -0.18576,0.460814 -0.28784,0.687216 -0.42845,0.950161 -0.91374,1.872781 -1.35,2.819479 -0.40439,1.174541 -0.55762,1.935705 0.6188,2.802295 0.81108,0.597474 2.43659,0.434345 3.37113,0.406916 0.96051,-0.04773 1.91131,-0.182592 2.85924,-0.336191 1.39577,-0.227647 1.07383,-2.201566 -0.32194,-1.973918 v 0 c -0.86275,0.141726 -1.72835,0.26449 -2.60261,0.311176 -0.95589,0.03496 -0.88386,0.05307 -1.74843,0.01704 -0.12021,-0.005 -0.26381,-0.09927 -0.35995,-0.02692 -0.0938,0.07061 0.007,0.25313 -0.0645,0.346321 -0.14472,0.18877 -0.33506,-1.821682 0.0651,-0.710594 0.45763,-0.995886 1.02072,-1.964541 1.4177,-2.985899 0.33356,-0.858182 0.66112,-1.702986 0.27852,-2.641558 -0.15805,-0.387715 -0.55326,-0.628581 -0.82988,-0.942872 -0.34482,-0.134358 -0.67778,-0.304384 -1.03445,-0.403074 -1.53203,-0.423913 -3.45587,-0.455385 -5.01303,-0.144872 -0.26096,0.05204 -0.51099,0.148751 -0.76649,0.223128 -1.28422,0.592251 -0.44665,2.408423 0.83757,1.816169 z" />
      <path
         style="fill:#000080;stroke-width:0.165558;stroke-linejoin:round"
         id="path695"
         d="m 173.93799,87.914265 c -0.71386,-0.07366 -1.12132,-0.173131 -1.86619,0.04134 -1.47869,0.425759 -2.85562,1.438227 -3.85106,2.59176 -0.32882,0.381045 -0.57753,0.824458 -0.8663,1.236684 -0.12162,0.451805 -0.35303,0.887677 -0.36486,1.355413 -0.039,1.542049 1.10194,2.531496 2.61173,2.391322 1.04838,-0.09734 1.49511,-0.624271 2.26866,-1.227068 0.60998,-0.625497 1.15835,-1.316131 1.6228,-2.056826 0.043,-0.06853 -0.0663,0.193926 -0.14714,0.192937 -0.45435,-0.0056 -0.92841,-0.388721 -1.34669,-0.211207 -0.22121,0.09388 0.17291,0.448445 0.25936,0.672666 0.83249,1.96024 2.32082,3.464671 3.85836,4.885217 1.03986,0.958482 2.39536,-0.512104 1.3555,-1.470586 v 0 c -1.31473,-1.208694 -2.61532,-2.470992 -3.34778,-4.134181 -0.37848,-0.98148 -0.26652,-1.153911 -1.82655,-1.445469 -0.19563,-0.03656 -0.32223,0.23767 -0.45738,0.383757 -0.1147,0.123984 -0.18809,0.280622 -0.28514,0.418859 -0.52075,0.741791 -0.34784,0.503177 -0.96784,1.230167 -0.0928,0.08799 -1.50395,1.497719 -1.64185,0.787435 -0.0413,-0.212638 0.0414,-0.431237 0.062,-0.646856 0.20287,-0.309865 0.37249,-0.644256 0.60861,-0.92959 0.6904,-0.834292 1.69628,-1.66483 2.72787,-2.043062 0.42652,-0.156382 0.67091,-0.109596 1.0873,-0.08793 1.3681,0.358198 1.87467,-1.576586 0.50657,-1.934784 z" />
      <path
         style="fill:#000080;stroke-width:0.165558;stroke-linejoin:round"
         id="path697"
         d="m 186.80423,87.981199 c -0.29407,-0.906307 -0.98939,-1.607153 -2.0251,-1.548284 -0.8206,0.04665 -1.29656,0.430062 -1.96642,0.823352 -1.12504,0.847304 -2.18091,1.950815 -1.70593,3.497868 0.26756,0.871464 0.89466,1.349923 1.50287,1.960333 0.7599,0.710144 1.70584,1.253143 2.33765,2.098331 0.16589,0.221916 0.41385,0.642802 0.31237,0.965086 -0.0336,0.106786 -0.15319,0.163306 -0.22978,0.244959 -0.63458,0.655132 -1.516,0.893575 -2.36568,1.135179 -1.35755,0.396303 -0.79709,2.31617 0.56046,1.919867 v 0 c 1.02691,-0.305848 2.09263,-0.624028 2.90093,-1.378651 0.313,-0.292217 0.52722,-0.674891 0.79082,-1.012338 0.10267,-0.427609 0.29941,-0.843151 0.308,-1.282827 0.0341,-1.744885 -2.05494,-3.143256 -3.22461,-4.127474 -0.20124,-0.183772 -0.40248,-0.367546 -0.60372,-0.55132 -0.10863,-0.117314 -0.21104,-0.240713 -0.32589,-0.351941 -0.0543,-0.05257 -0.16465,-0.06389 -0.17992,-0.137893 -0.0986,-0.477872 0.70171,-1.035039 0.96959,-1.275228 0.26402,-0.174551 0.56811,-0.302792 0.7867,-0.531699 0.0502,-0.05261 -0.0239,-0.225255 0.0478,-0.212913 0.0957,0.01648 0.20109,0.364602 0.20388,0.371632 0.42854,1.347724 2.3345,0.741685 1.90597,-0.606039 z" />
    </g>
    <path
       style="fill:#d40000;stroke-width:0.0999995;stroke-linejoin:round"
       id="path775"
       d="m 39.295661,123.10042 c 1.251842,-3.45954 3.073522,-6.67781 4.942263,-9.83339 4.345062,-6.59712 9.455666,-12.65724 14.525657,-18.702123 4.103137,-4.70403 8.492437,-9.177565 13.342863,-13.117502 2.84475,-2.310752 4.118237,-3.135924 7.081388,-5.226209 3.987879,-2.511726 8.130373,-5.378341 12.908928,-6.098823 0.554289,-0.08357 1.118269,-0.07971 1.677405,-0.119567 1.389231,0.0678 2.809371,0.305731 3.987701,1.10786 1.33858,0.911217 2.13144,2.356922 2.954994,3.696044 2.07541,3.76069 3.81726,7.727643 4.8986,11.894352 0.27279,1.051165 0.47834,2.11864 0.71752,3.17796 0.21484,1.137052 0.43466,2.273181 0.64454,3.411162 0.67487,3.659209 1.33233,7.310246 2.21919,10.926526 0.81394,3.31888 1.05828,3.98995 2.03278,7.25298 1.79406,5.65618 4.03792,11.24232 7.60517,16.03709 0.64209,0.86304 1.36866,1.65989 2.05299,2.48984 3.15647,3.18346 6.96442,5.6148 11.19397,7.11466 2.7025,0.95834 4.2058,1.18136 7.00757,1.77766 4.55256,0.79832 9.17673,1.17115 13.79831,1.04511 2.96391,-0.0808 3.68159,-0.20761 6.6081,-0.5048 6.32632,-0.76023 12.35406,-2.87149 18.28195,-5.11068 5.64325,-2.22376 11.15845,-4.74969 16.66541,-7.28683 5.05982,-2.35295 10.26603,-4.36808 15.47781,-6.35404 3.35667,-1.36917 6.82739,-2.34041 10.40454,-2.89682 2.94591,-0.31361 5.90269,-0.49081 8.84944,-0.80028 3.07038,-0.39646 6.16161,-0.50837 9.25359,-0.55141 3.01177,0.008 6.01694,0.24766 9.0225,0.41858 3.25874,0.22661 6.52034,0.2157 9.7801,0.0423 2.89837,-0.28347 5.80275,-0.32978 8.71164,-0.29017 1.24158,0.0255 0.66852,0.005 1.71937,0.0532 1.41279,0.0636 1.50275,-1.93437 0.0899,-1.99798 v 0 c -1.10442,-0.0493 -0.51043,-0.029 -1.78218,-0.055 -2.95336,-0.04 -5.90264,0.006 -8.84537,0.29283 -3.1864,0.17065 -6.37451,0.17992 -9.55996,-0.0419 -3.05266,-0.17359 -6.10495,-0.41693 -9.16401,-0.4216 -3.15242,0.0443 -6.30412,0.15939 -9.43462,0.56216 -2.98002,0.31326 -5.97078,0.48722 -8.94911,0.81329 -3.72685,0.58444 -7.30847,1.57918 -10.80805,3.00396 -5.2539,2.00209 -10.50182,4.03443 -15.60252,6.40645 -5.46431,2.5175 -10.93649,5.02446 -16.53546,7.23243 -5.7653,2.17914 -11.62564,4.24372 -17.77782,4.99187 -2.84469,0.29105 -3.52994,0.41347 -6.41198,0.49451 -4.48004,0.12597 -8.96281,-0.23315 -13.3769,-1.00165 -2.63293,-0.55577 -4.11654,-0.77825 -6.65145,-1.66661 -3.92796,-1.37656 -7.47484,-3.61238 -10.42362,-6.54382 -0.64525,-0.77768 -1.33071,-1.52368 -1.93574,-2.33303 -3.45744,-4.625 -5.61092,-10.02964 -7.34734,-15.49188 -0.9578,-3.2035 -1.19922,-3.86652 -1.99934,-7.126 -0.88167,-3.59171 -1.53261,-7.218208 -2.20376,-10.852578 -0.21447,-1.161415 -0.4394,-2.320872 -0.65911,-3.481305 -0.25058,-1.102813 -0.46617,-2.214166 -0.75174,-3.30844 -1.13162,-4.336185 -2.94623,-8.466151 -5.11562,-12.376674 -0.794,-1.269174 -1.26752,-2.190102 -2.33081,-3.256748 -1.755304,-1.760855 -4.029814,-2.439377 -6.465477,-2.486562 -0.653129,0.05392 -1.312074,0.05945 -1.959388,0.161763 -5.036111,0.796031 -9.422193,3.738621 -13.625896,6.41662 -3.033268,2.141587 -4.31561,2.972001 -7.229559,5.341567 -4.933336,4.011694 -9.400011,8.563234 -13.57389,13.350991 -5.139642,6.12847 -10.320671,12.272906 -14.714474,18.968796 -1.944327,3.28814 -3.839622,6.64235 -5.128834,10.25164 -0.424463,1.34901 1.483326,1.94929 1.907789,0.60028 z" />
  </g>
</svg>
